<?xml version="1.0" encoding="UTF-8" standalone="no"?>
<!DOCTYPE svg PUBLIC "-//W3C//DTD SVG 1.1//EN"
 "http://www.w3.org/Graphics/SVG/1.1/DTD/svg11.dtd">
<!-- Generated by graphviz version 2.43.0 (0)
 -->
<!-- Title: G Pages: 1 -->
<svg width="928pt" height="512pt"
 viewBox="0.00 0.00 927.71 512.00" xmlns="http://www.w3.org/2000/svg" xmlns:xlink="http://www.w3.org/1999/xlink">
<g id="graph0" class="graph" transform="scale(1 1) rotate(0) translate(4 508)">
<title>G</title>
<polygon fill="white" stroke="transparent" points="-4,4 -4,-508 923.71,-508 923.71,4 -4,4"/>
<!-- n8572523336658190 -->
<g id="node1" class="node">
<title>n8572523336658190</title>
<ellipse fill="#e7019c" stroke="black" cx="459.81" cy="-468" rx="36" ry="36"/>
<text text-anchor="middle" x="459.81" y="-465.5" font-family="Helvetica,sans-Serif" font-size="10.00">grafica L1 C: 0</text>
</g>
<!-- n8961397223426033 -->
<g id="node2" class="node">
<title>n8961397223426033</title>
<ellipse fill="#b7d4eb" stroke="black" cx="459.81" cy="-360" rx="36" ry="36"/>
<text text-anchor="middle" x="459.81" y="-357.5" font-family="Helvetica,sans-Serif" font-size="10.00">+EXP L1 C: 18</text>
</g>
<!-- n8572523336658190&#45;&gt;n8961397223426033 -->
<g id="edge1" class="edge">
<title>n8572523336658190&#45;&gt;n8961397223426033</title>
<path fill="none" stroke="black" d="M459.81,-432C459.81,-423.85 459.81,-415.06 459.81,-406.54"/>
<polygon fill="black" stroke="black" points="463.31,-406.33 459.81,-396.33 456.31,-406.33 463.31,-406.33"/>
</g>
<!-- n2783655727162641 -->
<g id="node3" class="node">
<title>n2783655727162641</title>
<ellipse fill="#ffcea1" stroke="black" cx="400.81" cy="-252" rx="36" ry="36"/>
<text text-anchor="middle" x="400.81" y="-249.5" font-family="Helvetica,sans-Serif" font-size="10.00">(E) L1 C: 9</text>
</g>
<!-- n8961397223426033&#45;&gt;n2783655727162641 -->
<g id="edge2" class="edge">
<title>n8961397223426033&#45;&gt;n2783655727162641</title>
<path fill="none" stroke="black" d="M442.59,-328.06C436.41,-316.95 429.35,-304.28 422.82,-292.55"/>
<polygon fill="black" stroke="black" points="425.87,-290.84 417.95,-283.8 419.76,-294.24 425.87,-290.84"/>
</g>
<!-- n864035357902298 -->
<g id="node9" class="node">
<title>n864035357902298</title>
<ellipse fill="#cae4ce" stroke="black" cx="577.81" cy="-252" rx="36" ry="36"/>
<text text-anchor="middle" x="577.81" y="-249.5" font-family="Helvetica,sans-Serif" font-size="10.00">{E} L1 C: 19</text>
</g>
<!-- n8961397223426033&#45;&gt;n864035357902298 -->
<g id="edge8" class="edge">
<title>n8961397223426033&#45;&gt;n864035357902298</title>
<path fill="none" stroke="black" d="M486.29,-335.21C503.3,-319.94 525.54,-299.95 543.84,-283.51"/>
<polygon fill="black" stroke="black" points="546.32,-286 551.42,-276.71 541.64,-280.79 546.32,-286"/>
</g>
<!-- n6537644361756668 -->
<g id="node4" class="node">
<title>n6537644361756668</title>
<ellipse fill="#d3ffc1" stroke="black" cx="282.81" cy="-144" rx="36" ry="36"/>
<text text-anchor="middle" x="282.81" y="-141.5" font-family="Helvetica,sans-Serif" font-size="10.00">ListaD L1 C: 16</text>
</g>
<!-- n2783655727162641&#45;&gt;n6537644361756668 -->
<g id="edge3" class="edge">
<title>n2783655727162641&#45;&gt;n6537644361756668</title>
<path fill="none" stroke="black" d="M374.33,-227.21C357.32,-211.94 335.08,-191.95 316.78,-175.51"/>
<polygon fill="black" stroke="black" points="318.98,-172.79 309.2,-168.71 314.3,-178 318.98,-172.79"/>
</g>
<!-- n586361851559569 -->
<g id="node5" class="node">
<title>n586361851559569</title>
<ellipse fill="#20c3d8" stroke="black" cx="46.81" cy="-36" rx="36" ry="36"/>
<text text-anchor="middle" x="46.81" y="-33.5" font-family="Helvetica,sans-Serif" font-size="10.00">4 L1 C: 16</text>
</g>
<!-- n6537644361756668&#45;&gt;n586361851559569 -->
<g id="edge4" class="edge">
<title>n6537644361756668&#45;&gt;n586361851559569</title>
<path fill="none" stroke="black" d="M249.87,-129.07C216.84,-115 164.58,-92.48 119.81,-72 109.53,-67.3 98.51,-62.1 88.23,-57.18"/>
<polygon fill="black" stroke="black" points="89.56,-53.94 79.03,-52.76 86.53,-60.25 89.56,-53.94"/>
</g>
<!-- n6597962032792458 -->
<g id="node6" class="node">
<title>n6597962032792458</title>
<ellipse fill="#20c3d8" stroke="black" cx="164.81" cy="-36" rx="36" ry="36"/>
<text text-anchor="middle" x="164.81" y="-33.5" font-family="Helvetica,sans-Serif" font-size="10.00">3 L1 C: 14</text>
</g>
<!-- n6537644361756668&#45;&gt;n6597962032792458 -->
<g id="edge5" class="edge">
<title>n6537644361756668&#45;&gt;n6597962032792458</title>
<path fill="none" stroke="black" d="M256.33,-119.21C239.32,-103.94 217.08,-83.95 198.78,-67.51"/>
<polygon fill="black" stroke="black" points="200.98,-64.79 191.2,-60.71 196.3,-70 200.98,-64.79"/>
</g>
<!-- n4519287379760677 -->
<g id="node7" class="node">
<title>n4519287379760677</title>
<ellipse fill="#20c3d8" stroke="black" cx="282.81" cy="-36" rx="36" ry="36"/>
<text text-anchor="middle" x="282.81" y="-33.5" font-family="Helvetica,sans-Serif" font-size="10.00">2 L1 C: 12</text>
</g>
<!-- n6537644361756668&#45;&gt;n4519287379760677 -->
<g id="edge6" class="edge">
<title>n6537644361756668&#45;&gt;n4519287379760677</title>
<path fill="none" stroke="black" d="M282.81,-108C282.81,-99.85 282.81,-91.06 282.81,-82.54"/>
<polygon fill="black" stroke="black" points="286.31,-82.33 282.81,-72.33 279.31,-82.33 286.31,-82.33"/>
</g>
<!-- n8736988257973915 -->
<g id="node8" class="node">
<title>n8736988257973915</title>
<ellipse fill="#20c3d8" stroke="black" cx="400.81" cy="-36" rx="36" ry="36"/>
<text text-anchor="middle" x="400.81" y="-33.5" font-family="Helvetica,sans-Serif" font-size="10.00">1 L1 C: 10</text>
</g>
<!-- n6537644361756668&#45;&gt;n8736988257973915 -->
<g id="edge7" class="edge">
<title>n6537644361756668&#45;&gt;n8736988257973915</title>
<path fill="none" stroke="black" d="M309.29,-119.21C326.3,-103.94 348.54,-83.95 366.84,-67.51"/>
<polygon fill="black" stroke="black" points="369.32,-70 374.42,-60.71 364.64,-64.79 369.32,-70"/>
</g>
<!-- n5361097670567301 -->
<g id="node10" class="node">
<title>n5361097670567301</title>
<ellipse fill="#86bafd" stroke="black" cx="636.81" cy="-144" rx="36" ry="36"/>
<text text-anchor="middle" x="636.81" y="-141.5" font-family="Helvetica,sans-Serif" font-size="10.00">ListaI L1 C: 20</text>
</g>
<!-- n864035357902298&#45;&gt;n5361097670567301 -->
<g id="edge9" class="edge">
<title>n864035357902298&#45;&gt;n5361097670567301</title>
<path fill="none" stroke="black" d="M595.03,-220.06C601.21,-208.95 608.27,-196.28 614.8,-184.55"/>
<polygon fill="black" stroke="black" points="617.86,-186.24 619.67,-175.8 611.74,-182.84 617.86,-186.24"/>
</g>
<!-- n7348244361410970 -->
<g id="node11" class="node">
<title>n7348244361410970</title>
<ellipse fill="#20c3d8" stroke="black" cx="518.81" cy="-36" rx="36" ry="36"/>
<text text-anchor="middle" x="518.81" y="-33.5" font-family="Helvetica,sans-Serif" font-size="10.00">1 L1 C: 20</text>
</g>
<!-- n5361097670567301&#45;&gt;n7348244361410970 -->
<g id="edge10" class="edge">
<title>n5361097670567301&#45;&gt;n7348244361410970</title>
<path fill="none" stroke="black" d="M610.33,-119.21C593.32,-103.94 571.08,-83.95 552.78,-67.51"/>
<polygon fill="black" stroke="black" points="554.98,-64.79 545.2,-60.71 550.3,-70 554.98,-64.79"/>
</g>
<!-- n1762831210236357 -->
<g id="node12" class="node">
<title>n1762831210236357</title>
<ellipse fill="#20c3d8" stroke="black" cx="636.81" cy="-36" rx="36" ry="36"/>
<text text-anchor="middle" x="636.81" y="-33.5" font-family="Helvetica,sans-Serif" font-size="10.00">2 L1 C: 22</text>
</g>
<!-- n5361097670567301&#45;&gt;n1762831210236357 -->
<g id="edge11" class="edge">
<title>n5361097670567301&#45;&gt;n1762831210236357</title>
<path fill="none" stroke="black" d="M636.81,-108C636.81,-99.85 636.81,-91.06 636.81,-82.54"/>
<polygon fill="black" stroke="black" points="640.31,-82.33 636.81,-72.33 633.31,-82.33 640.31,-82.33"/>
</g>
<!-- n2997103562684130 -->
<g id="node13" class="node">
<title>n2997103562684130</title>
<ellipse fill="#20c3d8" stroke="black" cx="754.81" cy="-36" rx="36" ry="36"/>
<text text-anchor="middle" x="754.81" y="-33.5" font-family="Helvetica,sans-Serif" font-size="10.00">3 L1 C: 24</text>
</g>
<!-- n5361097670567301&#45;&gt;n2997103562684130 -->
<g id="edge12" class="edge">
<title>n5361097670567301&#45;&gt;n2997103562684130</title>
<path fill="none" stroke="black" d="M663.29,-119.21C680.3,-103.94 702.54,-83.95 720.84,-67.51"/>
<polygon fill="black" stroke="black" points="723.32,-70 728.42,-60.71 718.64,-64.79 723.32,-70"/>
</g>
<!-- n2435951716937389 -->
<g id="node14" class="node">
<title>n2435951716937389</title>
<ellipse fill="#20c3d8" stroke="black" cx="872.81" cy="-36" rx="36" ry="36"/>
<text text-anchor="middle" x="872.81" y="-33.5" font-family="Helvetica,sans-Serif" font-size="10.00">4 L1 C: 26</text>
</g>
<!-- n5361097670567301&#45;&gt;n2435951716937389 -->
<g id="edge13" class="edge">
<title>n5361097670567301&#45;&gt;n2435951716937389</title>
<path fill="none" stroke="black" d="M669.75,-129.07C702.78,-115 755.04,-92.48 799.81,-72 810.08,-67.3 821.11,-62.1 831.39,-57.18"/>
<polygon fill="black" stroke="black" points="833.09,-60.25 840.59,-52.76 830.06,-53.94 833.09,-60.25"/>
</g>
</g>
</svg>
